<?xml version="1.0" encoding="UTF-8"?>
<svg version="1.1" xmlns="http://www.w3.org/2000/svg" width="198" height="188">
<path d="M0 0 C2.5 2.0625 2.5 2.0625 4 5 C4 7.31 4 9.62 4 12 C15.55 12 27.1 12 39 12 C39 10.02 39 8.04 39 6 C40.5 2.625 40.5 2.625 43 0 C46.73683197 -0.94186544 49.881863 -0.43005269 53.4375 0.9375 C55.9382732 4.23852063 55.83042096 7.95553986 56 12 C57.37671875 11.94779297 57.37671875 11.94779297 58.78125 11.89453125 C67.45604014 11.70317559 73.3357862 12.03186395 80.75 16.75 C83.63883339 19.63883339 85.19632246 22.32584204 87 26 C87 26.99 87 27.98 87 29 C87.66 29 88.32 29 89 29 C89 57.38 89 85.76 89 115 C88.34 115 87.68 115 87 115 C86.938125 115.680625 86.87625 116.36125 86.8125 117.0625 C85.31169359 122.4884924 82.26084001 126.51237767 77.4375 129.4375 C74 131 74 131 70 131 C70 131.66 70 132.32 70 133 C37.99 133 5.98 133 -27 133 C-27 132.34 -27 131.68 -27 131 C-27.825 130.979375 -28.65 130.95875 -29.5 130.9375 C-35.31526452 129.37983986 -39.45163339 125.51181984 -42.58924866 120.42185974 C-44.34490235 116.16341921 -44.42939547 112.72259122 -44.40405273 108.16821289 C-44.41091599 107.30075943 -44.41777924 106.43330597 -44.42485046 105.53956604 C-44.44309056 102.68376101 -44.43928494 99.82850681 -44.43359375 96.97265625 C-44.43815689 94.98017702 -44.44346286 92.98769937 -44.44947815 90.995224 C-44.45840378 86.82332965 -44.45599232 82.65162679 -44.44604492 78.47973633 C-44.43455615 73.1421331 -44.4547683 67.80519153 -44.48396206 62.46767521 C-44.50233686 58.35403772 -44.50202902 54.24055842 -44.49632454 50.12689018 C-44.49617148 48.15936797 -44.50220298 46.19183494 -44.51461601 44.22435188 C-44.52954829 41.46954352 -44.51883265 38.71595276 -44.50170898 35.96118164 C-44.51137695 35.15420837 -44.52104492 34.34723511 -44.53100586 33.51580811 C-44.44763469 27.08777579 -42.59857099 22.9862366 -38.32421875 18.07421875 C-30.2710905 11.2511626 -22.17638279 11.74594329 -12 12 C-12.12375 10.14375 -12.12375 10.14375 -12.25 8.25 C-12.2286346 5.23747924 -12.0939071 4.15651183 -10.5 1.5 C-6.97690664 -0.61385602 -4.00332769 -0.9352036 0 0 Z M-28 30 C-28 57.72 -28 85.44 -28 114 C-23.49191122 116.25404439 -20.06158145 116.29581434 -15.1640625 116.29052734 C-14.27257507 116.29724457 -13.38108765 116.30396179 -12.46258545 116.31088257 C-9.51666691 116.32987583 -6.57097594 116.3337871 -3.625 116.3359375 C-1.57763576 116.3423633 0.46972755 116.3490915 2.51708984 116.35610962 C6.80763886 116.36808485 11.09810733 116.37179007 15.38867188 116.37060547 C20.89025752 116.37040199 26.39132827 116.3977328 31.89279175 116.43214989 C36.12038554 116.45436784 40.34785428 116.45844462 44.57550049 116.45738602 C46.60412373 116.45974858 48.63275008 116.46860876 50.66131592 116.48405075 C53.49593412 116.50361226 56.32942679 116.49791207 59.1640625 116.48583984 C60.00366516 116.49707886 60.84326782 116.50831787 61.70831299 116.51989746 C65.15676921 116.48251278 67.55257044 116.27428525 70.5218811 114.45402527 C72.55301596 111.08186335 72.54476963 108.07195464 72.48583984 104.24975586 C72.48963654 103.47370499 72.49343323 102.69765411 72.49734497 101.89808655 C72.50474585 99.3365926 72.48337735 96.77623662 72.4609375 94.21484375 C72.45855291 92.43412916 72.45764779 90.65341203 72.4581604 88.87269592 C72.45503331 85.14275336 72.43847386 81.41319543 72.41162109 77.68334961 C72.37761669 72.8992145 72.36999326 68.11550153 72.37151146 63.33125973 C72.370968 59.65527813 72.36000511 55.97938904 72.34550858 52.30343819 C72.33913914 50.5391669 72.33520134 48.77488512 72.33372116 47.01060295 C72.32939106 44.54716959 72.31189738 42.08418643 72.29052734 39.62084961 C72.29143372 38.88986053 72.29234009 38.15887146 72.29327393 37.4057312 C72.24645893 33.72047365 72.10093103 32.15139655 70 29 C66.85069107 27.95023036 64.61185544 27.89868405 61.3125 27.9375 C60.31863281 27.94652344 59.32476562 27.95554687 58.30078125 27.96484375 C57.54152344 27.97644531 56.78226562 27.98804687 56 28 C55.89042969 28.61488281 55.78085938 29.22976562 55.66796875 29.86328125 C55.43013672 31.07564453 55.43013672 31.07564453 55.1875 32.3125 C54.96126953 33.51326172 54.96126953 33.51326172 54.73046875 34.73828125 C53.90362952 37.29838775 53.14493074 38.39512308 51 40 C47.5 40.375 47.5 40.375 44 40 C41 37 41 37 39 28 C27.45 28 15.9 28 4 28 C3.34 31.3 2.68 34.6 2 38 C-1.69486103 40.46324069 -3.63293092 40.38991688 -8 40 C-10.21001243 38.38241515 -10.9037409 37.42545051 -11.51171875 34.73828125 C-11.56972656 33.93777344 -11.62773438 33.13726562 -11.6875 32.3125 C-11.78611328 31.10013672 -11.78611328 31.10013672 -11.88671875 29.86328125 C-11.92410156 29.24839844 -11.96148437 28.63351563 -12 28 C-13.91635217 27.94576362 -15.83314925 27.90710037 -17.75 27.875 C-18.81734375 27.85179688 -19.8846875 27.82859375 -20.984375 27.8046875 C-24.2933129 27.82293107 -24.2933129 27.82293107 -28 30 Z " fill="#000000" transform="translate(77,28)"/>
<path d="M0 0 C1.01251579 -0.01226624 1.01251579 -0.01226624 2.04548645 -0.02478027 C4.28316358 -0.04962713 6.52077729 -0.06614862 8.75854492 -0.08056641 C9.52274939 -0.08589008 10.28695385 -0.09121376 11.07431602 -0.09669876 C15.11952079 -0.12342772 19.16469473 -0.14280307 23.20996094 -0.15722656 C27.38663035 -0.17387113 31.56251016 -0.21864683 35.73888111 -0.26959801 C38.95168454 -0.30326775 42.16430051 -0.3148036 45.37726402 -0.32045364 C46.91666382 -0.32716734 48.45605122 -0.34239275 49.99527931 -0.36634445 C52.15245353 -0.39799567 54.30749793 -0.39803455 56.46484375 -0.390625 C57.69125076 -0.39871185 58.91765778 -0.40679871 60.18122864 -0.41513062 C64.34823466 0.36555483 65.82473534 1.91457567 68.42651367 5.19287109 C69.05151367 8.19287109 69.05151367 8.19287109 68.42651367 11.19287109 C65.81803645 14.48178603 64.33087725 16.01912562 60.15672302 16.82106018 C58.91858353 16.82202194 57.68044403 16.8229837 56.40478516 16.82397461 C55.37457245 16.83470757 55.37457245 16.83470757 54.32354736 16.84565735 C52.06421414 16.86250051 49.80687751 16.84317314 47.54760742 16.82177734 C45.97249691 16.82260637 44.39738649 16.82506702 42.82228088 16.8290863 C39.52611151 16.83194113 36.23062284 16.81727328 32.93457031 16.78979492 C28.71190474 16.75568369 24.49045379 16.7617421 20.26772976 16.7804575 C17.01713452 16.79103014 13.76682152 16.78208793 10.51625252 16.76707268 C8.95934958 16.76189417 7.40241713 16.76236867 5.84551811 16.76861763 C3.66931721 16.77407456 1.4948508 16.75368474 -0.68115234 16.72631836 C-1.91849625 16.72011978 -3.15584015 16.7139212 -4.43067932 16.70753479 C-8.15967306 16.0968776 -9.31668246 15.16683282 -11.57348633 12.19287109 C-12.57348633 9.25537109 -12.57348633 9.25537109 -12.57348633 6.19287109 C-8.91044673 0.50884412 -6.52534616 0.06855985 0 0 Z " fill="#000000" transform="translate(70.573486328125,78.80712890625)"/>
</svg>
