<?xml version="1.0" encoding="UTF-8"?>
<svg version="1.1" xmlns="http://www.w3.org/2000/svg" width="198" height="188">
<path d="M0 0 C0.86238281 0.42410156 1.72476563 0.84820312 2.61328125 1.28515625 C15.70140438 8.41510497 23.34837092 19.57684293 28.23828125 33.359375 C33.11637212 50.27009001 28.65136258 65.8145526 21 81 C21.42595459 81.42151337 21.85190918 81.84302673 22.29077148 82.27731323 C26.70862193 86.65104116 31.1195152 91.031695 35.52636719 95.41650391 C37.17366638 97.05372291 38.82275301 98.68914545 40.47363281 100.32275391 C42.84127404 102.66623553 45.20248847 105.0160257 47.5625 107.3671875 C48.3062085 108.10057343 49.04991699 108.83395935 49.81616211 109.58956909 C50.49686768 110.2701236 51.17757324 110.9506781 51.87890625 111.65185547 C52.4829126 112.25142059 53.08691895 112.85098572 53.70922852 113.46871948 C55 115 55 115 55 117 C55.66 117 56.32 117 57 117 C57 118.65 57 120.3 57 122 C56.34 122 55.68 122 55 122 C54.8453125 122.9590625 54.8453125 122.9590625 54.6875 123.9375 C54.460625 124.618125 54.23375 125.29875 54 126 C53.01 126.33 52.02 126.66 51 127 C51 127.66 51 128.32 51 129 C48.36 129 45.72 129 43 129 C43 128.34 43 127.68 43 127 C42.40805847 126.73337555 41.81611694 126.4667511 41.20623779 126.19204712 C38.95541205 124.97590879 37.49513234 123.73689572 35.70019531 121.92724609 C35.07985413 121.30675385 34.45951294 120.6862616 33.82037354 120.04696655 C33.16293152 119.37920197 32.5054895 118.71143738 31.828125 118.0234375 C31.1457074 117.33819 30.46328979 116.6529425 29.76019287 115.94692993 C27.58538402 113.76094155 25.41763928 111.56809571 23.25 109.375 C21.7752001 107.89016745 20.29994494 106.40578694 18.82421875 104.921875 C15.21084552 101.2864709 11.60379147 97.64490176 8 94 C6.90300781 94.49371094 5.80601563 94.98742187 4.67578125 95.49609375 C3.22147274 96.1434956 1.76703903 96.79061624 0.3125 97.4375 C-0.40873047 97.76298828 -1.12996094 98.08847656 -1.87304688 98.42382812 C-14.60470651 104.06296504 -31.16759618 104.04809946 -44.203125 99.26953125 C-53.71812231 94.95057297 -61.62340159 89.50627404 -67.625 80.875 C-68.35976562 79.84117188 -69.09453125 78.80734375 -69.8515625 77.7421875 C-75.58247348 68.38530555 -76.65834726 59.38196421 -76.5625 48.5625 C-76.58634766 47.32951172 -76.61019531 46.09652344 -76.63476562 44.82617188 C-76.61356296 31.44728942 -71.75535918 21.00392272 -63 11 C-47.30844349 -4.50347278 -20.15572987 -10.28615149 0 0 Z M-51 24 C-58.67677422 34.5758092 -61.03093721 42.90575861 -60 56 C-57.99149389 66.59520673 -51.19367003 74.15839994 -42.6875 80.4375 C-34.55922359 85.42208763 -25.28924081 87.17344416 -16 85 C-5.20398712 81.80727668 3.14440086 75.68026896 9 66 C13.54972437 56.05502726 14.53852249 46.84134814 11.03515625 36.4453125 C6.91295049 26.70757361 -0.37087415 19.16614251 -9.99609375 14.77734375 C-24.22772067 9.25669315 -40.55339255 12.36502187 -51 24 Z " fill="#000000" transform="translate(109,32)"/>
</svg>
