<?xml version="1.0" encoding="utf-8" ?><svg xmlns="http://www.w3.org/2000/svg" xmlns:xlink="http://www.w3.org/1999/xlink" width="193" height="211" viewBox="0 0 193 211"><path d="M49.5135 35.3699L118.825 35.3777L135.081 35.3106C143.806 35.2102 152.419 34.2399 159.252 40.8553C164.817 46.243 166.123 51.6861 166.173 59.1831C166.314 80.3588 166.208 101.537 166.22 122.713L166.256 143.561C166.272 152.433 167.288 162.598 160.55 169.438C155.501 174.564 149.531 176.177 142.563 176.326C121.604 176.713 99.9252 176.331 78.8869 176.338L58.3354 176.342C53.0565 176.342 47.4232 176.563 42.2413 175.675C37.9723 174.944 35.0573 173.333 31.9752 170.411C26.9346 165.632 25.3096 160.679 25.2798 153.831C25.1845 131.899 25.2405 109.92 25.224 87.9885L25.2132 66.728C25.2133 62.284 25.0057 57.3887 25.6351 53.0444C26.8596 44.5917 33.3502 37.7034 41.7159 35.9886C44.4426 35.4297 46.7533 35.4198 49.5135 35.3699ZM145.561 161.929C151.619 160.834 151.92 157.72 152.091 152.157C152.298 145.384 152.121 138.545 152.113 131.761L152.102 92.1964L152.13 68.8161C152.136 64.4154 152.374 59.6965 151.772 55.3603C151.201 51.2424 148.128 49.587 144.258 49.5096C137.716 49.3788 131.184 49.4309 124.643 49.4373L87.9857 49.4638L60.3793 49.4511C56.7284 49.45 49.2414 49.2514 45.8143 49.577C41.0981 50.722 39.6917 52.4686 39.5523 57.3929C39.3489 64.5739 39.4173 71.7643 39.4237 78.9485L39.433 116.757L39.4338 143.937C39.4613 148.182 39.2675 152.93 39.761 157.093C40.1709 160.55 44.6728 161.999 47.5893 162.076C54.0471 162.248 60.4427 162.184 66.8806 162.175L103.574 162.136L130.726 162.179C134.484 162.186 142.179 162.397 145.561 161.929Z"/><path d="M94.3284 63.5147L94.9046 63.4911C98.8313 63.3689 101.53 65.1801 102.307 69.1193C103.115 73.2169 102.707 77.6245 102.708 81.8024C102.709 87.4508 102.684 93.0701 102.802 98.7192C112.619 98.7685 122.838 98.1184 132.616 99.0216C139.274 99.6397 139.499 111.593 133.116 112.327C123.215 113.466 112.702 112.399 102.75 112.89C102.642 118.6 103.817 141.667 101.337 145.212C100.14 146.923 98.1347 147.581 96.1884 147.951C86.6848 148.407 88.4707 135.589 88.5252 129.358L88.5145 112.986C82.216 112.678 76.1385 112.925 69.6357 112.819C64.1595 112.777 53.6386 114.176 53.4413 105.979C53.2209 96.8182 66.0038 98.6656 71.409 98.7046L88.7472 98.7135C88.0296 93.8704 87.9313 71.1525 89.583 67.2872C90.4042 65.3652 92.4948 64.2589 94.3284 63.5147Z"/></svg>