<?xml version="1.0" encoding="UTF-8"?>
<svg version="1.1" xmlns="http://www.w3.org/2000/svg" width="198" height="188">
<path d="M0 0 C11.23580384 11.76780213 15.31217698 26.03595299 15.1640625 41.92431641 C14.98200548 48.28999071 14.21536701 53.96718746 11.8125 59.91015625 C11.43351563 60.86921875 11.05453125 61.82828125 10.6640625 62.81640625 C3.63024854 78.5916653 -9.55352191 89.19122073 -25.3359375 95.62109375 C-41.47485219 101.37482203 -58.92679091 101.30993512 -75.2409668 96.27661133 C-82.16156357 94.28304638 -87.86135772 95.69224609 -94.75 97.34765625 C-108.15624691 100.51003297 -108.15624691 100.51003297 -115.1875 98.91015625 C-117.1875 97.28515625 -117.1875 97.28515625 -118.1875 94.91015625 C-118.72776061 89.44440283 -117.50446601 85.72269241 -115.44311523 80.79223633 C-111.9790046 72.77262963 -111.9790046 72.77262963 -111.765625 64.25390625 C-113.07294077 61.33874236 -114.55513916 58.65354803 -116.1875 55.91015625 C-121.0734989 42.58039225 -118.61493175 27.13451809 -112.88012695 14.54760742 C-105.22935934 -1.3163282 -92.39326234 -10.75792196 -76.1875 -17.08984375 C-49.327458 -26.29489161 -20.41932048 -19.50774367 0 0 Z M-93.1875 15.91015625 C-95.19844291 18.80027952 -96.78311242 21.68463193 -98.1875 24.91015625 C-98.50460938 25.62816406 -98.82171875 26.34617187 -99.1484375 27.0859375 C-103.14939166 37.41867691 -101.4275565 46.92596915 -97.1875 56.91015625 C-96.46694147 58.19791118 -95.72084533 59.47210139 -94.9375 60.72265625 C-92.86806775 64.49197928 -92.71621777 66.66861618 -93.1875 70.91015625 C-93.80094757 72.59713707 -94.45845914 74.26981432 -95.1875 75.91015625 C-95.1875 76.90015625 -95.1875 77.89015625 -95.1875 78.91015625 C-94.29611328 78.801875 -94.29611328 78.801875 -93.38671875 78.69140625 C-83.30751734 77.5627865 -75.22205809 77.1280671 -65.6796875 80.953125 C-62.49858179 82.17470948 -59.58172783 82.65873197 -56.1875 82.91015625 C-55.23037109 82.9875 -55.23037109 82.9875 -54.25390625 83.06640625 C-40.10710578 83.68938462 -26.54913743 78.73021115 -15.8125 69.66015625 C-11.20312105 65.2579404 -8.01354625 60.5995563 -5.1875 54.91015625 C-4.84847656 54.28882813 -4.50945312 53.6675 -4.16015625 53.02734375 C-0.68140397 45.62096792 -1.01569832 36.3369626 -3.06640625 28.58984375 C-8.32442243 15.01965016 -17.72557369 6.36798311 -30.6875 0.03515625 C-52.56975432 -9.23592725 -78.28658345 -2.53185264 -93.1875 15.91015625 Z " fill="#1A1A1A" transform="translate(153.1875,55.08984375)"/>
<path d="M0 0 C4.45850936 0.79616239 5.90783917 1.93313458 8.5 5.625 C9.125 9.125 9.125 9.125 8.5 12.625 C5.90783917 16.31686542 4.45850936 17.45383761 0 18.25 C-4.45850936 17.45383761 -5.90783917 16.31686542 -8.5 12.625 C-9.125 9.125 -9.125 9.125 -8.5 5.625 C-5.90783917 1.93313458 -4.45850936 0.79616239 0 0 Z " fill="#343434" transform="translate(127.5,85.375)"/>
<path d="M0 0 C2.93602134 1.99899325 4.62130844 3.44520943 5.48046875 6.97265625 C5.73661074 10.67633097 5.29738696 12.63953096 2.9375 15.5 C-0.77306506 17.39475662 -2.88370608 17.66154724 -7 17 C-10 15.0625 -10 15.0625 -12 12 C-12.41794629 7.8132047 -12.00832418 4.27979608 -9.375 0.9375 C-5.96803659 -0.40735398 -3.63267682 -0.50984938 0 0 Z " fill="#353535" transform="translate(105,86)"/>
<path d="M0 0 C2.9375 1.4375 2.9375 1.4375 5 4 C5.58421182 7.08241286 5.67814692 9.93138519 5 13 C3.42658317 14.91869441 2.22033672 15.88983164 0 17 C-6.16562108 17.57089084 -6.16562108 17.57089084 -9.375 15.375 C-11.37108249 12.45764866 -11.8560483 10.52681669 -12 7 C-10.18990908 0.36299997 -6.54913218 -0.67749643 0 0 Z " fill="#222222" transform="translate(79,86)"/>
<path d="M0 0 C0.66 0.33 1.32 0.66 2 1 C-4.50294918 8.75351633 -4.50294918 8.75351633 -8.25 11.625 C-11.22046211 14.1903991 -12.49698221 16.40945749 -14 20 C-14.66 20 -15.32 20 -16 20 C-13.12286326 11.77960932 -6.88340048 5.16255036 0 0 Z " fill="#909090" transform="translate(58,48)"/>
<path d="M0 0 C0 0.33 0 0.66 0 1 C-0.928125 1.268125 -1.85625 1.53625 -2.8125 1.8125 C-6.55662689 3.13803547 -6.55662689 3.13803547 -9 6 C-9.73041853 9.61023099 -9.73041853 9.61023099 -10 13 C-10.66 12.34 -11.32 11.68 -12 11 C-11.77636595 3.95552732 -11.77636595 3.95552732 -9.375 1 C-6.17067842 -0.34918804 -3.43707561 -0.19829282 0 0 Z " fill="#9A9B9B" transform="translate(79,86)"/>
</svg>
