<?xml version="1.0" encoding="UTF-8"?>
<svg version="1.1" xmlns="http://www.w3.org/2000/svg" width="198" height="188">
<path d="M0 0 C2.83807084 2.16408633 5.46470582 4.36187815 7.85546875 7.015625 C8.32984375 7.43328125 8.80421875 7.8509375 9.29296875 8.28125 C10.87172475 8.10964609 12.45056501 7.91606256 14.01171875 7.625 C23.94480559 6.12823349 31.91838165 6.99773024 40.2578125 12.6015625 C45.68122724 16.79811597 48.15983971 21.88186289 50.29296875 28.28125 C50.60200474 32.25529632 50.61667446 36.2341163 50.66796875 40.21875 C50.72404297 41.86520508 50.72404297 41.86520508 50.78125 43.54492188 C50.79285156 44.60130859 50.80445313 45.65769531 50.81640625 46.74609375 C50.83622559 47.711521 50.85604492 48.67694824 50.87646484 49.67163086 C50.05491613 53.34591296 48.38651662 54.23334364 45.29296875 56.28125 C42.56494045 56.78182125 42.56494045 56.78182125 39.55552673 56.78245544 C38.4101091 56.79228958 37.26469147 56.80212372 36.08456421 56.81225586 C34.83712433 56.80258789 33.58968445 56.79291992 32.30444336 56.78295898 C30.97030569 56.78674421 29.63617195 56.79224593 28.30204773 56.79933167 C24.68632043 56.81327603 21.07106952 56.80212471 17.45536876 56.78562045 C13.66958807 56.77175629 9.88383464 56.77823147 6.09803772 56.78175354 C-0.25804308 56.78445426 -6.61393488 56.77099093 -12.9699707 56.74780273 C-20.31765171 56.72118231 -27.66501698 56.71944998 -35.0127297 56.7311911 C-42.08368154 56.74197045 -49.15451919 56.73578135 -56.22546196 56.72163582 C-59.23376605 56.71587849 -62.24198651 56.71595665 -65.25029182 56.72070122 C-69.44966958 56.72635993 -73.64857575 56.70715276 -77.84790039 56.68530273 C-79.0973645 56.68980438 -80.34682861 56.69430603 -81.63415527 56.69894409 C-82.77675308 56.68903946 -83.91935089 56.67913483 -85.09657288 56.66893005 C-86.08930238 56.66650016 -87.08203188 56.66407026 -88.10484409 56.66156673 C-91.15375614 56.21595994 -92.51027063 55.41567406 -94.70703125 53.28125 C-97.77245063 44.08499185 -97.01402342 29.92786306 -92.70703125 21.28125 C-88.8271561 14.29250052 -83.39977145 10.13226369 -75.796875 7.66015625 C-73.13498721 7.1775336 -70.59943603 7.14930544 -67.89453125 7.15625 C-66.29738281 7.15238281 -66.29738281 7.15238281 -64.66796875 7.1484375 C-61.70703125 7.28125 -61.70703125 7.28125 -58.01953125 8.28125 C-53.20404899 8.28125 -51.51051245 5.68628042 -48.17578125 2.42578125 C-35.39682163 -8.67492893 -13.97498705 -8.87300765 0 0 Z M-40.70703125 19.28125 C-45.65109552 25.90896859 -45.91855441 30.60800471 -46.70703125 39.28125 C-30.86703125 39.28125 -15.02703125 39.28125 1.29296875 39.28125 C1.29296875 31.21332272 0.85247843 25.40441305 -4.5078125 19.1953125 C-10.40058547 13.77167291 -16.32500205 10.67861535 -24.44140625 10.99609375 C-30.81690093 11.7985267 -36.40484853 14.42002659 -40.70703125 19.28125 Z M-75.70703125 27.28125 C-78.62743784 31.81291539 -78.70703125 33.61617809 -78.70703125 39.28125 C-73.42703125 39.28125 -68.14703125 39.28125 -62.70703125 39.28125 C-62.70703125 34.66125 -62.70703125 30.04125 -62.70703125 25.28125 C-67.43881699 22.91535713 -71.75269539 24.07503173 -75.70703125 27.28125 Z M17.29296875 25.28125 C17.62296875 29.90125 17.95296875 34.52125 18.29296875 39.28125 C23.24296875 39.28125 28.19296875 39.28125 33.29296875 39.28125 C33.33266262 31.79996308 33.33266262 31.79996308 29.29296875 26.28125 C25.73483002 23.67194827 21.26382187 23.29582344 17.29296875 25.28125 Z " fill="#000000" transform="translate(121.70703125,91.71875)"/>
<path d="M0 0 C7.27275862 5.6305228 10.07819708 12.39234176 11.37890625 21.34375 C11.62618306 23.48757188 11.86166063 25.63294898 12.06640625 27.78125 C12.77216797 27.25724609 12.77216797 27.25724609 13.4921875 26.72265625 C14.11480469 26.26761719 14.73742187 25.81257813 15.37890625 25.34375 C15.99378906 24.89128906 16.60867187 24.43882813 17.2421875 23.97265625 C22.25403521 20.69939382 28.32373766 21.37159141 34.06640625 21.78125 C40.24818807 23.19581989 43.90400617 27.15547847 47.81640625 31.90625 C50.43182225 37.92170681 50.79901306 44.3818026 48.87890625 50.65625 C46.53206221 56.53383708 43.40060187 60.39891155 37.60546875 63.046875 C31.49662128 64.81374165 24.52558843 65.07977377 18.52734375 62.828125 C12.93589647 59.51932848 8.96408558 55.05818931 7.06640625 48.78125 C6.63367545 46.11523039 6.33994585 43.47105606 6.06640625 40.78125 C5.47472656 41.33554688 4.88304688 41.88984375 4.2734375 42.4609375 C3.48324219 43.18539062 2.69304687 43.90984375 1.87890625 44.65625 C1.10160156 45.37554687 0.32429688 46.09484375 -0.4765625 46.8359375 C-6.46148052 51.57439406 -13.9305816 52.21489792 -21.3671875 51.5703125 C-29.00902398 50.16643959 -34.60976216 46.30487218 -39.93359375 40.78125 C-40.02833984 41.94140625 -40.02833984 41.94140625 -40.125 43.125 C-41.0273284 50.79954047 -42.76013533 55.89196518 -48.93359375 60.78125 C-53.40106838 63.48294904 -56.73269751 64.19046642 -61.93359375 64.15625 C-63.10921875 64.16398437 -64.28484375 64.17171875 -65.49609375 64.1796875 C-70.89792592 63.55356604 -74.76027061 61.56647552 -78.18359375 57.34375 C-78.90289062 56.47943359 -78.90289062 56.47943359 -79.63671875 55.59765625 C-83.86317272 49.67807464 -83.61308822 43.88196724 -82.93359375 36.78125 C-81.26042769 30.81108929 -77.94463847 27.25830144 -72.93359375 23.78125 C-66.89130458 20.90203838 -59.87535608 20.5070816 -53.48046875 22.57421875 C-50.06581787 24.22463334 -47.5404578 26.01591397 -44.93359375 28.78125 C-44.97484375 27.646875 -45.01609375 26.5125 -45.05859375 25.34375 C-45.02851628 16.8468653 -43.2075668 10.19768882 -37.17578125 3.96484375 C-26.89655116 -5.68957039 -12.28704584 -7.74456223 0 0 Z M-25.93359375 17.78125 C-27.85710753 20.37381205 -27.94714027 21.46290682 -27.80859375 24.71875 C-26.76751022 28.36254235 -25.68789106 30.1719157 -22.93359375 32.78125 C-18.83254556 34.60393808 -16.93770915 35.14813832 -12.68359375 33.59375 C-11.77609375 32.995625 -10.86859375 32.3975 -9.93359375 31.78125 C-9.33546875 31.389375 -8.73734375 30.9975 -8.12109375 30.59375 C-6.12608117 27.5487308 -5.70493779 24.33886779 -5.93359375 20.78125 C-7.54176683 17.56490384 -8.91069441 15.53137618 -11.80859375 13.40625 C-18.23919772 11.51489589 -21.26592108 13.11357733 -25.93359375 17.78125 Z M10.06640625 28.78125 C11.06640625 30.78125 11.06640625 30.78125 11.06640625 30.78125 Z M-63.93359375 38.78125 C-64.59359375 39.44125 -65.25359375 40.10125 -65.93359375 40.78125 C-65.61317978 43.38405568 -65.61317978 43.38405568 -64.93359375 45.78125 C-62.53639943 46.46083603 -62.53639943 46.46083603 -59.93359375 46.78125 C-59.27359375 46.12125 -58.61359375 45.46125 -57.93359375 44.78125 C-58.25400772 42.17844432 -58.25400772 42.17844432 -58.93359375 39.78125 C-61.33078807 39.10166397 -61.33078807 39.10166397 -63.93359375 38.78125 Z M26.06640625 38.78125 C23.78040597 41.48457305 23.78040597 41.48457305 24.37890625 43.90625 C24.91219111 45.76718853 24.91219111 45.76718853 26.06640625 46.78125 C27.7325774 46.82188832 29.4002872 46.823971 31.06640625 46.78125 C31.72640625 45.13125 32.38640625 43.48125 33.06640625 41.78125 C31.81756355 40.1979247 31.81756355 40.1979247 30.06640625 38.78125 C28.74640625 38.78125 27.42640625 38.78125 26.06640625 38.78125 Z " fill="#000000" transform="translate(115.93359375,32.21875)"/>
</svg>
