<?xml version="1.0" encoding="UTF-8"?>
<svg version="1.1" xmlns="http://www.w3.org/2000/svg" width="198" height="188">
<path d="M0 0 C2.60722857 0.02144664 5.2117026 0.00011672 7.81884766 -0.02539062 C22.63115322 -0.05126542 32.96758413 2.68342059 43.86181641 13.21289062 C52.35823285 22.36777934 53.3435696 32.49787582 53.48681641 44.45898438 C53.54289062 46.22918945 53.54289062 46.22918945 53.60009766 48.03515625 C53.61169922 49.17404297 53.62330078 50.31292969 53.63525391 51.48632812 C53.66498291 53.04275024 53.66498291 53.04275024 53.6953125 54.63061523 C52.87625586 58.68854395 51.35676288 59.98001808 48.11181641 62.52148438 C45.18986362 63.23312649 42.35757724 63.1854276 39.36181641 63.13671875 C38.49129639 63.14226776 37.62077637 63.14781677 36.72387695 63.15353394 C33.85262628 63.16532364 30.98295618 63.14106219 28.11181641 63.11523438 C26.11311922 63.11352302 24.11441979 63.11358921 22.11572266 63.11535645 C17.92930594 63.11370358 13.74342496 63.09501154 9.55712891 63.06347656 C4.19357204 63.02379926 -1.16928321 63.01943158 -6.53295898 63.02693939 C-10.65940772 63.03001038 -14.785699 63.01788395 -18.91210938 63.00080872 C-20.88963839 62.99378232 -22.86718525 62.99065375 -24.84472656 62.99150085 C-27.60953967 62.98970115 -30.37351546 62.96830451 -33.13818359 62.94140625 C-33.95391846 62.94433685 -34.76965332 62.94726746 -35.61010742 62.95028687 C-40.17860416 62.88178373 -43.17066591 62.47014772 -46.88818359 59.52148438 C-49.00693297 55.28398562 -48.16234504 49.7382849 -48.20068359 45.08398438 C-48.2296875 43.94509766 -48.25869141 42.80621094 -48.28857422 41.6328125 C-48.37760483 29.64107335 -45.22987793 20.25961567 -36.88818359 11.52148438 C-25.97816592 1.10643914 -14.42843133 -0.14116245 0 0 Z M-25.22802734 22.45117188 C-32.15439839 30.88474836 -31.88818359 34.66939573 -31.88818359 46.52148438 C-9.11818359 46.52148438 13.65181641 46.52148438 37.11181641 46.52148438 C37.56247444 33.35188361 37.56247444 33.35188361 31.27587891 23.55273438 C23.36585366 16.1579215 15.44384636 16.1486132 5.05444336 16.15087891 C2.81562597 16.14651616 0.57880015 16.11017656 -1.65966797 16.07226562 C-10.67097841 15.9997918 -18.03773712 16.52128311 -25.22802734 22.45117188 Z " fill="#000000" transform="translate(63.88818359375,95.478515625)"/>
<path d="M0 0 C8.49936482 7.31993755 12.40126191 15.6953953 13.3125 26.8125 C12.92611386 37.22458976 8.97824707 45.35076763 2 53 C-5.76562521 59.85777334 -15.0042989 62.62873318 -25.26953125 62.28125 C-36.55904314 61.11838182 -44.33571922 55.73902697 -51.4609375 47.1171875 C-57.23841468 39.16949047 -59.03724485 29.99142924 -57.59375 20.26171875 C-55.06586056 10.58652285 -49.15107407 2.70575185 -41 -3 C-27.4060928 -10.47892219 -12.39024408 -9.85587597 0 0 Z M-37.5 14.5 C-38.2425 15.7375 -38.2425 15.7375 -39 17 C-39.391875 17.61875 -39.78375 18.2375 -40.1875 18.875 C-42.42963747 24.73905185 -42.11233086 29.18220474 -39.9453125 34.921875 C-38.11754253 38.93994782 -36.03188316 41.31207789 -32.375 43.75 C-26.13286275 46.06190269 -20.49705386 46.96132154 -14.1875 44.4375 C-8.74712773 41.63080618 -5.96272344 38.36304845 -3.625 32.625 C-2.35166651 25.23966576 -3.75806394 20.12724097 -8 14 C-12.12213002 9.87786998 -16.58901667 8.21630626 -22.40234375 7.84765625 C-28.09764819 8.18166659 -33.48618079 10.48618079 -37.5 14.5 Z " fill="#000000" transform="translate(89,27)"/>
<path d="M0 0 C7.5883928 4.18991014 13.03074226 10.08961482 16.171875 18.21875 C18.49051474 26.48520471 18.08420729 35.13033602 14.234375 42.84375 C9.24360632 51.17556105 2.22438651 56.71777639 -7.203125 59.28125 C-15.81435983 60.73666997 -23.05213846 59.20723037 -30.76953125 55.29296875 C-33.74580175 53.13211482 -34.56566852 50.95779324 -35.203125 47.40625 C-34.54711917 43.56393012 -32.81595476 42.16465308 -29.765625 39.84375 C-26.63181637 39.39606305 -24.72025281 39.32506216 -21.91796875 40.84765625 C-17.76544457 42.76942334 -13.23120967 42.35502709 -8.765625 41.84375 C-4.62015943 39.99309573 -3.17674318 38.52010571 -0.828125 34.65625 C0.46159255 30.02843995 0.51852607 26.46842918 -0.765625 21.84375 C-2.99036604 18.2381352 -4.9317042 16.49883056 -8.765625 14.84375 C-10.2574535 14.51281621 -11.75860286 14.2216407 -13.265625 13.96875 C-16.18576625 13.3385383 -17.79179817 12.82651401 -20.328125 11.15625 C-22.38603034 7.84570663 -22.31154958 5.66522209 -21.765625 1.84375 C-16.19520996 -5.45541454 -7.57207533 -3.16572641 0 0 Z " fill="#000000" transform="translate(138.765625,37.15625)"/>
<path d="M0 0 C10.02947877 4.45754612 17.12503671 11.60749687 21.9375 21.4375 C24.0257196 27.20295478 24.33492772 32.565181 24.375 38.625 C24.40787109 39.51380859 24.44074219 40.40261719 24.47460938 41.31835938 C24.48169922 42.17623047 24.48878906 43.03410156 24.49609375 43.91796875 C24.50954834 44.69035889 24.52300293 45.46274902 24.53686523 46.25854492 C23.60556837 49.64421681 21.89771422 50.65560659 18.9375 52.4375 C15.60351562 52.95507812 15.60351562 52.95507812 11.84375 52.96875 C11.17460571 52.9725769 10.50546143 52.97640381 9.81604004 52.98034668 C8.40745531 52.98305723 6.99881952 52.97575592 5.59033203 52.95898438 C3.44318661 52.93755675 1.29938603 52.95880912 -0.84765625 52.984375 C-2.2213615 52.98173156 -3.59506467 52.97660625 -4.96875 52.96875 C-6.82983398 52.96198242 -6.82983398 52.96198242 -8.72851562 52.95507812 C-12.64710519 52.34674407 -14.30198779 51.23872022 -17.0625 48.4375 C-18.31860015 44.7477058 -18.40602813 43.17363171 -16.75 39.625 C-15.0625 37.4375 -15.0625 37.4375 -13.0625 36.4375 C-11.46802536 36.35349471 -9.87009455 36.33022533 -8.2734375 36.33984375 C-7.33242187 36.34306641 -6.39140625 36.34628906 -5.421875 36.34960938 C-4.43703125 36.35798828 -3.4521875 36.36636719 -2.4375 36.375 C-0.94863281 36.38176758 -0.94863281 36.38176758 0.5703125 36.38867188 C3.0261016 36.40047855 5.48177104 36.416946 7.9375 36.4375 C6.4845894 28.78968275 4.70063954 22.88208804 -1.8828125 18.12109375 C-6.31060031 15.69208465 -10.79220348 14.73217578 -15.765625 14.02734375 C-18.48237497 13.32967497 -20.00559287 12.33021942 -22.0625 10.4375 C-23.22629881 6.86851699 -23.37170437 5.15355223 -21.875 1.6875 C-16.41168261 -5.09454918 -7.28784237 -2.5904653 0 0 Z " fill="#000000" transform="translate(147.0625,105.5625)"/>
</svg>
