<?xml version="1.0" encoding="UTF-8"?>
<svg version="1.1" xmlns="http://www.w3.org/2000/svg" width="198" height="188">
<path d="M0 0 C0 4.62 0 9.24 0 14 C-2.24609375 14.16276042 -4.4921875 14.32552083 -6.73828125 14.48828125 C-9.47280987 15.10697425 -10.27630892 15.81704929 -12 18 C-12.44133235 20.1190525 -12.44133235 20.1190525 -12.36076355 22.49882507 C-12.36694954 23.88072525 -12.36694954 23.88072525 -12.3732605 25.2905426 C-12.36247467 26.29898727 -12.35168884 27.30743195 -12.34057617 28.34643555 C-12.34101425 29.41001282 -12.34145233 30.47359009 -12.34190369 31.56939697 C-12.33981027 35.09202299 -12.31645263 38.61417566 -12.29296875 42.13671875 C-12.28737478 44.57623535 -12.28310374 47.01575532 -12.28010559 49.45527649 C-12.26864126 55.88169632 -12.23916019 62.30791333 -12.20599365 68.73425293 C-12.17532712 75.28960425 -12.16160755 81.84498828 -12.14648438 88.40039062 C-12.1142922 101.26701371 -12.06365171 114.13349608 -12 127 C-9.21397157 127.92867614 -7.52084997 128.13127019 -4.64198303 128.14717102 C-3.75173935 128.15432632 -2.86149567 128.16148163 -1.9442749 128.16885376 C-0.97016663 128.17154266 0.00394165 128.17423157 1.00756836 128.17700195 C2.54940544 128.18685875 2.54940544 128.18685875 4.12239075 128.19691467 C7.52820912 128.21664715 10.93398348 128.22830819 14.33984375 128.23828125 C15.50155153 128.24235678 16.66325932 128.2464323 17.86017036 128.25063133 C24.00500435 128.27148858 30.149816 128.28579367 36.29467773 128.29516602 C42.65156222 128.30624941 49.00809848 128.34067281 55.36485958 128.38033772 C60.24525114 128.40643272 65.12555867 128.41485136 70.00601387 128.41844749 C72.35003584 128.42332931 74.69405367 128.43498829 77.03800774 128.45348549 C80.31330212 128.47773239 83.58768119 128.47693849 86.86303711 128.4699707 C87.83512115 128.48278076 88.8072052 128.49559082 89.80874634 128.50878906 C93.59765272 128.47932926 96.23614143 128.41186339 99.60121155 126.59745789 C101.81145396 122.49318353 101.55625676 118.56213109 101.51757812 113.97070312 C101.5245874 112.95241928 101.53159668 111.93413544 101.53881836 110.88499451 C101.55643305 107.51680282 101.54476276 104.14945034 101.53125 100.78125 C101.5339439 98.44242186 101.53782547 96.10359481 101.54284668 93.76477051 C101.54874646 88.86211488 101.54016299 83.95975068 101.52148438 79.05712891 C101.49869497 72.76857558 101.51181542 66.48070508 101.53577423 60.19217682 C101.550219 55.36235395 101.5456322 50.53269332 101.53526306 45.7028656 C101.53259214 43.38398661 101.53587832 41.06509295 101.54518127 38.74623108 C101.55532471 35.50685531 101.53987555 32.26858981 101.51757812 29.02929688 C101.52567505 28.06813461 101.53377197 27.10697235 101.54211426 26.11668396 C101.52679019 20.90036488 101.52679019 20.90036488 99.10144043 16.41125488 C96.8313864 14.88676492 95.45820711 14.43054714 92.75 14.25 C91.5125 14.1675 90.275 14.085 89 14 C89 9.38 89 4.76 89 0 C103.90389811 -0.62099575 103.90389811 -0.62099575 110 4 C115.49758525 9.49758525 116.22647394 15.38062084 116.28216553 22.83988953 C116.27968811 23.86395401 116.27721069 24.88801849 116.2746582 25.94311523 C116.27976913 27.03490082 116.28488007 28.1266864 116.29014587 29.2515564 C116.30402504 32.85395823 116.3030864 36.45616839 116.30078125 40.05859375 C116.30466892 42.56673758 116.30900374 45.07488075 116.31376648 47.58302307 C116.32122496 52.83767319 116.3210786 58.09227386 116.31567383 63.34692383 C116.30963408 69.40909364 116.32194907 75.47103136 116.3432439 81.53316158 C116.36302162 87.3797697 116.36602925 93.22628723 116.36250877 99.07292366 C116.36302182 101.55400195 116.36825643 104.03508396 116.37832069 106.51614189 C116.39067207 109.98677272 116.38390077 113.45686782 116.37231445 116.92749023 C116.37995819 117.94953049 116.38760193 118.97157074 116.39547729 120.02458191 C116.34252892 127.20898859 115.43490055 132.10444259 110.6875 137.75 C104.27261981 143.12059737 98.94824166 143.4388965 90.88916016 143.40405273 C89.77947372 143.41091599 88.66978729 143.41777924 87.526474 143.42485046 C83.86387276 143.44312829 80.2016995 143.43927906 76.5390625 143.43359375 C73.98847311 143.43815534 71.43788495 143.44346085 68.88729858 143.44947815 C63.54264759 143.45841144 58.19815199 143.45621831 52.85351562 143.44604492 C46.69018133 143.43457183 40.52728259 143.44862918 34.36400568 143.4754414 C28.41808288 143.50033226 22.47229456 143.50276557 16.5263176 143.49632454 C14.0041977 143.49617135 11.48206941 143.50221358 8.95998001 143.51461601 C5.42953572 143.52952993 1.90004386 143.51884421 -1.63037109 143.50170898 C-2.66751755 143.51137695 -3.704664 143.52104492 -4.77323914 143.53100586 C-11.67540924 143.46102637 -17.412637 142.41628726 -22.55690575 137.51734066 C-26.05001175 133.52011202 -27.12230778 130.43325665 -27.14044189 125.23783875 C-27.14900711 123.76797516 -27.14900711 123.76797516 -27.15774536 122.26841736 C-27.15886322 121.19459305 -27.15998108 120.12076874 -27.16113281 119.0144043 C-27.16609772 117.88243622 -27.17106262 116.75046814 -27.17617798 115.584198 C-27.19081048 111.83086545 -27.19760341 108.07757516 -27.203125 104.32421875 C-27.20887551 101.71971129 -27.21463325 99.11520384 -27.22039795 96.51069641 C-27.2299685 91.74443752 -27.23586579 86.97818776 -27.2388947 82.21192044 C-27.24337372 75.20275281 -27.26091543 68.19378035 -27.2898953 61.18467206 C-27.31414138 55.10901747 -27.32184023 49.03344329 -27.32357025 42.95774269 C-27.32659898 40.3753535 -27.33463486 37.79296517 -27.34775543 35.21060753 C-27.3647995 31.59818084 -27.36293936 27.98622982 -27.35644531 24.3737793 C-27.3656601 23.30602768 -27.37487488 22.23827606 -27.3843689 21.13816833 C-27.34935916 14.92492131 -26.90878479 10.19578489 -22.53515625 5.390625 C-14.75224385 -0.63751935 -9.86992913 -0.18277647 0 0 Z " fill="#000000" transform="translate(55,22)"/>
<path d="M0 0 C21.78 0 43.56 0 66 0 C66 27.72 66 55.44 66 84 C61.18525094 83.03705019 59.79550389 82.41907967 56.12890625 79.54296875 C55.22462891 78.84236328 54.32035156 78.14175781 53.38867188 77.41992188 C52.45603516 76.68322266 51.52339844 75.94652344 50.5625 75.1875 C47.83513363 73.05822368 45.1049218 70.9332808 42.36376953 68.82177734 C40.95742167 67.73789305 39.55919376 66.64312308 38.17919922 65.52587891 C36.54137074 64.20839263 36.54137074 64.20839263 34 63 C30.41879142 64.07785006 27.76475844 65.73550788 24.85546875 68.046875 C24.09556641 68.645 23.33566406 69.243125 22.55273438 69.859375 C21.77220703 70.48328125 20.99167969 71.1071875 20.1875 71.75 C17.12821202 74.17076098 14.06539216 76.58697426 11 79 C10.2570166 79.59103516 9.5140332 80.18207031 8.74853516 80.79101562 C8.04390137 81.33951172 7.33926758 81.88800781 6.61328125 82.453125 C5.67609253 83.19030762 5.67609253 83.19030762 4.7199707 83.94238281 C3 85 3 85 0 85 C0 56.95 0 28.9 0 0 Z M15 14 C15 27.86 15 41.72 15 56 C21.47453608 51.70161708 21.47453608 51.70161708 27.75 47.125 C32.04873372 44.31428949 32.04873372 44.31428949 36 45 C38.59080801 46.60297305 40.87005062 48.52883616 43.1875 50.5 C47.13450057 54.36171373 47.13450057 54.36171373 52 56 C52 42.14 52 28.28 52 14 C39.79 14 27.58 14 15 14 Z " fill="#000000" transform="translate(66,22)"/>
</svg>
