<?xml version="1.0" encoding="UTF-8"?>
<svg version="1.1" xmlns="http://www.w3.org/2000/svg" width="198" height="188">
<path d="M0 0 C2.07667856 0.00855304 4.15064034 -0.02036281 6.22705078 -0.05200195 C7.54060547 -0.05135742 8.85416016 -0.05071289 10.20751953 -0.05004883 C12.00406982 -0.05282837 12.00406982 -0.05282837 13.83691406 -0.05566406 C16.94970703 0.44604492 16.94970703 0.44604492 19.37890625 2.25048828 C20.94970703 4.44604492 20.94970703 4.44604492 20.82470703 8.07104492 C19.94970703 11.44604492 19.94970703 11.44604492 17.94970703 13.44604492 C4.58470703 13.94104492 4.58470703 13.94104492 -9.05029297 14.44604492 C-9.38029297 40.51604492 -9.71029297 66.58604492 -10.05029297 93.44604492 C-1.14029297 93.44604492 7.76970703 93.44604492 16.94970703 93.44604492 C18.26970703 94.76604492 19.58970703 96.08604492 20.94970703 97.44604492 C20.73542132 103.66033064 20.73542132 103.66033064 17.94970703 106.44604492 C13.44394391 106.8471673 8.92327108 106.7750163 4.40161133 106.76171875 C2.1560762 106.75857137 -0.08812518 106.78196678 -2.33349609 106.80737305 C-3.76643715 106.80964741 -5.19938173 106.8103489 -6.63232422 106.80932617 C-8.58489136 106.81379761 -8.58489136 106.81379761 -10.5769043 106.81835938 C-15.47536904 106.29329023 -18.90684679 104.21818034 -22.05029297 100.44604492 C-23.31580748 96.64950139 -23.21404026 93.07914923 -23.22729492 89.12255859 C-23.23715172 87.8488868 -23.23715172 87.8488868 -23.24720764 86.54948425 C-23.26692884 83.73765983 -23.27860018 80.92588877 -23.28857422 78.11401367 C-23.29264975 77.15338831 -23.29672527 76.19276295 -23.3009243 75.20302773 C-23.3217793 70.11924072 -23.3360839 65.03548068 -23.34545898 59.95166016 C-23.35652654 54.7024898 -23.39093214 49.45374299 -23.43063068 44.2047224 C-23.45678068 40.16664341 -23.46514935 36.12866563 -23.46874046 32.09050941 C-23.47361003 30.15563405 -23.48523455 28.22076332 -23.50377846 26.28597069 C-23.52813711 23.57621078 -23.52721103 20.86755082 -23.52026367 18.15771484 C-23.53307373 17.36113464 -23.54588379 16.56455444 -23.55908203 15.74383545 C-23.51047999 10.53383002 -22.49859367 7.57655343 -19.05029297 3.44604492 C-13.01493628 -0.52006159 -6.99980531 -0.04409195 0 0 Z " fill="#FFFFFF" transform="translate(69.05029296875,40.553955078125)"/>
<path d="M0 0 C2.21409028 1.71831667 4.06974584 3.34396878 6.01953125 5.3203125 C6.8355909 6.12563919 6.8355909 6.12563919 7.6681366 6.94723511 C8.81127172 8.0826103 9.94808489 9.2243821 11.07885742 10.37207031 C12.80568821 12.11811242 14.5598116 13.83285054 16.31835938 15.546875 C17.42885733 16.65708254 18.5376412 17.76900781 19.64453125 18.8828125 C20.16739212 19.39039093 20.69025299 19.89796936 21.22895813 20.42092896 C24.78120702 24.08899709 26.0200713 26.8873945 26 32 C24.89379883 34.10180664 24.89379883 34.10180664 23.14453125 35.84765625 C22.49564941 36.51555176 21.84676758 37.18344727 21.17822266 37.87158203 C20.10000244 38.92514893 20.10000244 38.92514893 19 40 C18.26185059 40.76038574 17.52370117 41.52077148 16.76318359 42.30419922 C14.42753171 44.70589401 12.06218039 47.07443174 9.6875 49.4375 C8.87732422 50.25154297 8.06714844 51.06558594 7.23242188 51.90429688 C6.45833984 52.67708984 5.68425781 53.44988281 4.88671875 54.24609375 C4.18764404 54.94404053 3.48856934 55.6419873 2.76831055 56.36108398 C0.37499846 58.57926762 -0.63562197 58.97674183 -3.9375 59.1875 C-7 59 -7 59 -10 57 C-11.22086063 53.80751963 -10.93770751 51.24750175 -10 48 C-8.19321782 45.89669028 -6.45813514 44.05989805 -4.4453125 42.18359375 C-3.92461182 41.68178589 -3.40391113 41.17997803 -2.86743164 40.66296387 C-1.58758731 39.43223155 -0.29501521 38.21475888 1 37 C0.43259094 36.99413376 -0.13481812 36.98826752 -0.71942139 36.98222351 C-6.62447443 36.91829507 -12.5289822 36.83387704 -18.43359375 36.73754883 C-20.63729667 36.70429212 -22.84108491 36.67626254 -25.04492188 36.65356445 C-28.21260955 36.62003262 -31.37951469 36.56771664 -34.546875 36.51171875 C-36.02519806 36.50213387 -36.02519806 36.50213387 -37.53338623 36.49235535 C-38.4540387 36.47256119 -39.37469116 36.45276703 -40.32324219 36.43237305 C-41.1315448 36.42126999 -41.93984741 36.41016693 -42.77264404 36.39872742 C-45.53812555 35.90366811 -46.94679478 34.88738496 -49 33 C-49.66259654 30.16431142 -49.28167693 27.95760774 -49 25 C-46.51072892 22.51072892 -45.7123565 22.73403625 -42.27490234 22.68115234 C-41.29403656 22.66128265 -40.31317078 22.64141296 -39.30258179 22.62094116 C-37.71034286 22.60361435 -37.71034286 22.60361435 -36.0859375 22.5859375 C-34.45877304 22.55688828 -34.45877304 22.55688828 -32.79873657 22.5272522 C-29.32423841 22.46733574 -25.84970733 22.42102261 -22.375 22.375 C-20.02342282 22.33683135 -17.67185979 22.29778029 -15.3203125 22.2578125 C-9.5470003 22.16162441 -3.77360334 22.07661247 2 22 C1.13375 21.2265625 0.2675 20.453125 -0.625 19.65625 C-1.75103974 18.60527957 -2.87598278 17.55313325 -4 16.5 C-4.57234375 15.9946875 -5.1446875 15.489375 -5.734375 14.96875 C-8.07180955 12.74262185 -9.77409828 11.10768422 -10.43212891 7.88110352 C-10.49916989 4.6244586 -10.42416232 2.53835986 -8.375 -0.0625 C-5.09679986 -1.35652637 -3.39548754 -0.93741241 0 0 Z " fill="#FFFFFF" transform="translate(126,65)"/>
</svg>
