<?xml version="1.0" encoding="UTF-8"?>
<svg version="1.1" xmlns="http://www.w3.org/2000/svg" width="198" height="188">
<path d="M0 0 C10.57791905 4.97175142 15.91571041 11.6209244 20.06640625 22.375 C21.32974182 29.32334565 19.68512836 36.46218038 16.69140625 42.8125 C14.87082809 45.33901663 12.88485947 47.60484967 10.69140625 49.8125 C11.68140625 50.34875 12.67140625 50.885 13.69140625 51.4375 C16.69140625 53.8125 16.69140625 53.8125 17.19140625 56.9375 C16.69140625 59.8125 16.69140625 59.8125 14.69140625 61.8125 C12.80859375 61.859375 12.80859375 61.859375 10.56640625 61.5625 C9.75300781 61.45550781 8.93960938 61.34851563 8.1015625 61.23828125 C5.69140625 60.8125 5.69140625 60.8125 2.00390625 59.75 C-9.0006496 56.85637177 -21.58980682 58.26425014 -31.43359375 64 C-32.74729143 64.90637047 -34.03813812 65.84645057 -35.30859375 66.8125 C-36.07300781 67.39 -36.83742188 67.9675 -37.625 68.5625 C-45.96614301 75.37832691 -49.30273828 83.69523038 -52.30859375 93.8125 C-50.63664758 95.48444617 -48.59756237 94.95443276 -46.30151367 94.97021484 C-45.23337936 94.98047699 -44.16524506 94.99073914 -43.06474304 95.00131226 C-41.31953117 95.01226425 -41.31953117 95.01226425 -39.5390625 95.0234375 C-37.09960268 95.05150711 -34.66014964 95.08017158 -32.22070312 95.109375 C-28.35604039 95.15066361 -24.49150419 95.18753127 -20.62670898 95.21386719 C-16.90972366 95.24142329 -13.19332364 95.28730019 -9.4765625 95.3359375 C-8.31916061 95.33919037 -7.16175873 95.34244324 -5.96928406 95.34579468 C-4.89169327 95.36236115 -3.81410248 95.37892761 -2.70385742 95.39599609 C-1.75645187 95.40408295 -0.80904633 95.4121698 0.16706848 95.42050171 C3.15667537 95.88475051 4.54847662 96.69607848 6.69140625 98.8125 C7.06640625 101.875 7.06640625 101.875 6.69140625 104.8125 C4.69140625 106.8125 4.69140625 106.8125 2.13510132 107.05300903 C0.51627548 107.0463472 0.51627548 107.0463472 -1.13525391 107.03955078 C-2.96692612 107.03932419 -2.96692612 107.03932419 -4.83560181 107.03909302 C-6.17295493 107.02887903 -7.5103064 107.01844702 -8.84765625 107.0078125 C-10.21243076 107.0040828 -11.57720794 107.00123563 -12.94198608 106.99923706 C-16.53580098 106.99159714 -20.12945448 106.97194572 -23.72320557 106.9498291 C-27.38966692 106.92937832 -31.05615432 106.920237 -34.72265625 106.91015625 C-41.91804237 106.88870003 -49.11329545 106.85455992 -56.30859375 106.8125 C-56.30859375 106.1525 -56.30859375 105.4925 -56.30859375 104.8125 C-57.20578125 104.44125 -57.20578125 104.44125 -58.12109375 104.0625 C-60.70164473 102.58789944 -61.74109298 101.3318536 -63.30859375 98.8125 C-65.5049932 88.67404745 -60.93817683 80.4575378 -56.30859375 71.8125 C-55.64859375 71.8125 -54.98859375 71.8125 -54.30859375 71.8125 C-54.04175781 71.23242188 -53.77492188 70.65234375 -53.5 70.0546875 C-49.69080815 62.88591333 -43.38319741 57.61636022 -36.30859375 53.8125 C-35.64859375 53.8125 -34.98859375 53.8125 -34.30859375 53.8125 C-34.30859375 53.1525 -34.30859375 52.4925 -34.30859375 51.8125 C-32.65859375 51.1525 -31.00859375 50.4925 -29.30859375 49.8125 C-30.66984375 48.4203125 -30.66984375 48.4203125 -32.05859375 47 C-36.68083925 41.60007812 -38.73478594 35.31910327 -39.87109375 28.375 C-38.98519034 22.76427841 -36.78483011 17.8967612 -34.30859375 12.8125 C-33.81939453 11.78189453 -33.81939453 11.78189453 -33.3203125 10.73046875 C-26.75473564 -0.49945615 -11.63871408 -4.17729526 0 0 Z M-21.55859375 13.375 C-26.17779499 17.46929201 -27.94591276 22.27373304 -28.80859375 28.3125 C-28.04273538 33.67350861 -26.58978011 38.6246349 -22.58984375 42.4609375 C-16.59799312 46.85326868 -11.49840433 47.40883797 -4.30859375 46.8125 C1.19463291 45.01336821 4.45775126 41.46776183 7.69140625 36.8125 C10.19816595 31.7989806 10.01559745 27.15724274 8.69140625 21.8125 C6.03626265 16.78669246 2.94910793 12.90402699 -2.5703125 11.0546875 C-9.91523345 9.27750908 -14.71856866 10.0865264 -21.55859375 13.375 Z " fill="#FFFFFF" transform="translate(108.30859375,41.1875)"/>
<path d="M0 0 C1.093125 0.0825 2.18625 0.165 3.3125 0.25 C4.75457941 3.13415883 4.40644887 5.66721528 4.375 8.875 C4.36597656 10.06351563 4.35695312 11.25203125 4.34765625 12.4765625 C4.33605469 13.39179687 4.32445312 14.30703125 4.3125 15.25 C5.21613281 15.21519531 6.11976563 15.18039063 7.05078125 15.14453125 C8.23027344 15.11746094 9.40976563 15.09039062 10.625 15.0625 C12.38263672 15.01029297 12.38263672 15.01029297 14.17578125 14.95703125 C17.3125 15.25 17.3125 15.25 19.203125 16.60546875 C20.80943349 18.9866514 20.80333466 20.44523051 20.3125 23.25 C17.96297745 25.61073745 16.64210257 26.21797902 13.296875 26.54296875 C12.22953125 26.50816406 11.1621875 26.47335938 10.0625 26.4375 C8.98484375 26.41042969 7.9071875 26.38335937 6.796875 26.35546875 C5.97703125 26.32066406 5.1571875 26.28585938 4.3125 26.25 C4.32410156 27.16523438 4.33570313 28.08046875 4.34765625 29.0234375 C4.35667969 30.21195313 4.36570313 31.40046875 4.375 32.625 C4.38660156 33.80835938 4.39820313 34.99171875 4.41015625 36.2109375 C4.3125 39.25 4.3125 39.25 3.3125 41.25 C0 41.5 0 41.5 -3.6875 41.25 C-5.89919942 39.0785133 -6.62895746 37.76517432 -6.98046875 34.671875 C-6.94566406 33.79015625 -6.91085938 32.9084375 -6.875 32 C-6.84792969 31.10796875 -6.82085937 30.2159375 -6.79296875 29.296875 C-6.75816406 28.62140625 -6.72335938 27.9459375 -6.6875 27.25 C-7.43515625 27.21261719 -8.1828125 27.17523438 -8.953125 27.13671875 C-10.43039063 27.03810547 -10.43039063 27.03810547 -11.9375 26.9375 C-12.91203125 26.87949219 -13.8865625 26.82148438 -14.890625 26.76171875 C-17.97932523 26.1966074 -19.44443548 25.41952142 -21.6875 23.25 C-22.18111113 20.42936498 -22.19424289 18.98061218 -20.546875 16.60546875 C-17.85573075 14.6436472 -15.78413549 14.95656015 -12.5 15.0625 C-11.41332031 15.08957031 -10.32664062 15.11664063 -9.20703125 15.14453125 C-7.95986328 15.19673828 -7.95986328 15.19673828 -6.6875 15.25 C-6.72230469 14.50234375 -6.75710937 13.7546875 -6.79296875 12.984375 C-6.82003906 11.99953125 -6.84710938 11.0146875 -6.875 10 C-6.90980469 9.02546875 -6.94460937 8.0509375 -6.98046875 7.046875 C-6.45738042 2.05312506 -5.01321711 0.33987913 0 0 Z " fill="#FFFFFF" transform="translate(132.6875,106.75)"/>
</svg>
